<svg version="1.2" baseProfile="tiny-ps" xmlns="http://www.w3.org/2000/svg" width="1024" height="1024" viewBox="0 0 1024 1024">
<title>Anima Felix</title>
<defs>
<linearGradient id="bg" x1="0" y1="0" x2="1" y2="1">
<stop offset="0" stop-color="#EBE239"/>
<stop offset="1" stop-color="#53C57F"/>
</linearGradient>
</defs>
<rect width="1024" height="1024" rx="180" fill="url(#bg)"/>
<path d="M605.094 457.341C607.471 461.374 609.614 465.564 611.462 469.908C891.908 335.7 688.301 132.093 554.093 412.539C558.44 414.387 562.626 416.526 566.659 418.906C603.906 389.197 634.796 420.091 605.094 457.341Z" fill="white"/>
<path d="M457.338 418.903C461.37 416.526 465.561 414.383 469.904 412.536C335.692 132.09 132.089 335.696 412.535 469.904C414.383 465.557 416.522 461.371 418.903 457.338C389.196 420.091 420.091 389.197 457.338 418.903Z" fill="white"/>
<path d="M539.168 407.46C543.757 408.656 548.219 410.162 552.555 411.926C655.984 118.691 368.009 118.691 471.438 411.926C475.77 410.162 480.232 408.656 484.824 407.46C490.184 360.196 533.809 360.196 539.168 407.46Z" fill="white"/>
<path d="M616.536 539.172C615.34 543.761 613.834 548.223 612.07 552.559C905.305 655.988 905.305 368.013 612.07 471.442C613.834 475.774 615.34 480.236 616.536 484.828C663.8 490.188 663.8 533.813 616.536 539.172Z" fill="white"/>
<path d="M566.655 605.097C562.622 607.474 558.432 609.617 554.089 611.465C688.301 891.911 891.903 688.304 611.457 554.096C609.61 558.443 607.471 562.629 605.09 566.662C634.796 603.905 603.905 634.8 566.655 605.097Z" fill="white"/>
<path d="M484.824 616.54C480.236 615.348 475.77 613.838 471.438 612.074C368.009 905.309 655.984 905.309 552.555 612.074C548.223 613.838 543.761 615.344 539.168 616.54C533.809 663.804 490.184 663.804 484.824 616.54Z" fill="white"/>
<path d="M418.899 566.659C416.522 562.626 414.379 558.436 412.531 554.093C132.085 688.301 335.692 891.907 469.9 611.461C465.553 609.614 461.367 607.474 457.334 605.094C420.091 634.8 389.197 603.905 418.899 566.659Z" fill="white"/>
<path d="M407.46 484.828C408.656 480.24 410.163 475.777 411.926 471.442C118.691 368.013 118.691 655.988 411.926 552.559C410.163 548.227 408.656 543.765 407.46 539.172C360.192 533.813 360.192 490.188 407.46 484.828Z" fill="white"/>
<path d="M511.997 600.003C560.599 600.003 599.999 560.603 599.999 512C599.999 463.398 560.599 423.998 511.997 423.998C463.394 423.998 423.994 463.398 423.994 512C423.994 560.603 463.394 600.003 511.997 600.003Z" fill="white"/>
</svg>
